<?xml version="1.0" encoding="UTF-8"?>
<svg id="Layer_2" data-name="Layer 2" xmlns="http://www.w3.org/2000/svg" viewBox="0 0 1014.99 396.53">
  <defs>
    <style>
      .cls-1 {
        fill: none;
        stroke: #000;
        stroke-miterlimit: 10;
        stroke-width: 10px;
      }
    </style>
  </defs>
  <g id="Layer_1-2" data-name="Layer 1">
    <g>
      <path class="cls-1" d="M201.18,293.47c0,57.93-50.22,104.08-109.43,97.43-46.35-5.21-83.18-43.7-86.5-90.22-3.7-51.76,32.79-95.75,81.42-103.95,5.65-.95,9.44-6.49,7.86-12-.06-.22-.13-.43-.19-.65-2.62-8.5-9.65-14.86-18.08-17.73-33.64-11.46-57.5-43.96-56.02-81.77C21.93,42.11,56.79,7.01,99.26,5.09c47.53-2.16,86.74,35.73,86.74,82.84,0,38.21-25.85,70.33-60.96,79.96-3.8,1.04-7.06,3.65-8.77,7.2-.05.1-.1.2-.14.3-4.49,9.48,1.42,20.48,11.57,23.1,42.24,10.89,73.49,49.31,73.49,94.99Z"/>
      <path class="cls-1" d="M653.63,300.72c-2.06,44.43-38.61,80.99-83.05,83.05-50.08,2.32-91.44-37.57-91.44-87.2,0-18.09,5.52-34.94,15-48.88,2.65-3.89,2.06-9.27-1.66-12.16-2.98-2.32-5.91-3.8-8.72-4.66-7.4-2.27-15.4.88-19.78,7.26l-79.33,115.57c-21.7,31.64-64.96,39.68-96.65,17.97l-22.02-15.14c-31.64-21.7-39.68-64.96-17.92-96.59L397.79,41.79c21.76-31.64,65.01-39.68,96.65-17.97l22.02,15.14c31.64,21.7,39.68,64.96,17.97,96.59l-42.01,61.19c-4.59,6.68-3.7,15.75,2.14,21.38,2.72,2.62,5.61,4.45,8.51,5.7,5.65,2.43,12.19,1.81,17.41-1.44,13.35-8.32,29.12-13.09,45.97-13.09,49.62,0,89.51,41.36,87.2,91.44Z"/>
      <path class="cls-1" d="M1009.99,101.66c.17,23.11-9.11,44.1-24.28,59.22-14.98,15.03-35.74,24.28-58.6,24.28h-74.47c-4.88,0-9.21,3.23-10.6,7.91-1.13,3.78-1.5,7.29-1.33,10.5.2,3.76,2.96,6.97,6.63,7.78,39.1,8.67,68.32,43.55,68.32,85.22,0,49.83-41.72,89.86-92.09,87.16-43.74-2.34-79.71-37.96-82.38-81.68-2.76-45.09,28.76-83.37,71.01-91.28,8-1.5,12.4-10.14,9.32-17.67-.03-.08-.06-.15-.09-.23-1.96-4.69-6.57-7.71-11.65-7.71h-118.19c-44.65,0-83.05-34.33-85.12-78.92-2.21-47.58,35.7-86.78,82.79-86.78h235.46c45.91,0,84.94,36.3,85.28,82.2Z"/>
    </g>
  </g>
</svg>