<svg width="195" height="181" viewBox="0 0 195 181" fill="none" xmlns="http://www.w3.org/2000/svg">
<path d="M1.49012e-07 180.8V34.2H32V42C40.4 35.8667 49.8667 32.8 60.4 32.8C70.5333 32.8 79.6667 35.2667 87.8 40.2C95.9333 45 102.4 51.5333 107.2 59.8C112 67.9333 114.4 77.0667 114.4 87.2C114.4 97.3333 111.933 106.533 107 114.8C102.2 122.933 95.6 129.4 87.2 134.2C78.9333 139 69.6667 141.4 59.4 141.4C54.4667 141.4 49.7333 140.8 45.2 139.6C40.6667 138.4 36.4 136.667 32.4 134.4V180.8H1.49012e-07ZM54.8 114C60.1333 114 64.8667 112.867 69 110.6C73.1333 108.2 76.4 105 78.8 101C81.3333 96.8667 82.6 92.2667 82.6 87.2C82.6 82.1333 81.3333 77.6 78.8 73.6C76.4 69.4667 73.0667 66.2667 68.8 64C64.6667 61.6 60 60.4 54.8 60.4C50.2667 60.4 46.1333 61.1333 42.4 62.6C38.6667 63.9333 35.3333 66 32.4 68.8V105.8C35.2 108.333 38.5333 110.333 42.4 111.8C46.2667 113.267 50.4 114 54.8 114ZM143.358 78.8L143.758 57.4L123.958 69.8L112.758 52.4L134.558 39.8L112.358 26.6L123.758 9.6L143.758 22.2L143.358 -9.53674e-06H163.958L163.558 22.2L183.558 9.6L194.958 26.6L172.758 39.8L194.558 52.4L182.958 69.8L163.558 57.6L163.958 78.8H143.358Z" fill="#FF4937"/>
</svg>
