<svg width="375" height="105" viewBox="0 0 375 105" fill="none" xmlns="http://www.w3.org/2000/svg">
<path d="M0 103.704V24.5216H17.2366V28.7346C21.7612 25.4218 26.8603 23.7654 32.5341 23.7654C37.9923 23.7654 42.9119 25.0977 47.2929 27.7623C51.6739 30.3549 55.1571 33.8838 57.7426 38.3488C60.328 42.7418 61.6208 47.6749 61.6208 53.1482C61.6208 58.6214 60.2921 63.5905 57.6348 68.0556C55.0493 72.4486 51.4943 75.9414 46.9697 78.534C42.5169 81.1265 37.5255 82.4228 31.9954 82.4228C29.3381 82.4228 26.7885 82.0988 24.3467 81.4506C21.9048 80.8025 19.6066 79.8663 17.452 78.642V103.704H0ZM29.5177 67.6235C32.3904 67.6235 34.94 67.0113 37.1664 65.787C39.3928 64.4907 41.1524 62.7624 42.4451 60.6019C43.8097 58.3694 44.4919 55.8848 44.4919 53.1482C44.4919 50.4115 43.8097 47.963 42.4451 45.8025C41.1524 43.57 39.3569 41.8416 37.0587 40.6173C34.8323 39.321 32.3186 38.6728 29.5177 38.6728C27.0758 38.6728 24.8494 39.0689 22.8385 39.8611C20.8275 40.5813 19.0321 41.6975 17.452 43.2099V63.1945C18.9602 64.5628 20.7557 65.643 22.8385 66.4352C24.9212 67.2274 27.1476 67.6235 29.5177 67.6235Z" fill="white"/>
<path d="M63.3916 81.6667V24.5216H80.8436V81.6667H63.3916ZM72.1176 19.2284C69.4603 19.2284 67.198 18.2922 65.3307 16.4198C63.4634 14.5473 62.5298 12.2788 62.5298 9.6142C62.5298 6.94959 63.4634 4.68107 65.3307 2.80864C67.198 0.936215 69.4603 0 72.1176 0C74.7749 0 77.0372 0.936215 78.9045 2.80864C80.7718 4.68107 81.7055 6.94959 81.7055 9.6142C81.7055 12.2788 80.7718 14.5473 78.9045 16.4198C77.0372 18.2922 74.7749 19.2284 72.1176 19.2284Z" fill="white"/>
<path d="M126.706 103.704V77.6698C122.253 80.8385 117.226 82.4228 111.624 82.4228C106.237 82.4228 101.318 81.1265 96.8649 78.534C92.4839 75.8693 89.0007 72.3405 86.4152 67.9475C83.8297 63.4825 82.537 58.5134 82.537 53.0401C82.537 47.5669 83.8297 42.6338 86.4152 38.2407C89.0725 33.7757 92.6276 30.2469 97.0804 27.6543C101.605 25.0617 106.632 23.7654 112.162 23.7654C114.891 23.7654 117.477 24.1255 119.919 24.8457C122.433 25.4938 124.767 26.4661 126.921 27.7623V24.5216H144.158V103.704H126.706ZM114.64 67.5154C117.082 67.5154 119.308 67.1553 121.319 66.4352C123.33 65.643 125.126 64.4907 126.706 62.9784V42.9938C125.198 41.5535 123.402 40.4733 121.319 39.7531C119.237 38.9609 117.01 38.5648 114.64 38.5648C111.839 38.5648 109.29 39.213 106.991 40.5093C104.765 41.7335 102.97 43.4619 101.605 45.6945C100.312 47.8549 99.6658 50.3035 99.6658 53.0401C99.6658 55.7768 100.312 58.2613 101.605 60.4938C102.97 62.6543 104.765 64.3827 106.991 65.679C109.29 66.9033 111.839 67.5154 114.64 67.5154Z" fill="white"/>
<path d="M170.814 82.7469C166.361 82.7469 162.411 81.7747 158.964 79.8303C155.588 77.8858 152.931 75.1852 150.992 71.7284C149.053 68.1996 148.083 64.2027 148.083 59.7377V24.5216H165.535V57.3611C165.535 60.4578 166.469 62.9784 168.336 64.9228C170.275 66.7953 172.789 67.7315 175.877 67.7315C178.104 67.7315 180.079 67.3354 181.802 66.5432C183.526 65.751 184.962 64.6348 186.111 63.1945V24.5216H203.563V81.6667H186.111V77.7778C181.802 81.0905 176.703 82.7469 170.814 82.7469Z" fill="white"/>
<path d="M207.908 81.6667V24.5216H225.36V81.6667H207.908ZM216.634 19.2284C213.977 19.2284 211.714 18.2922 209.847 16.4198C207.98 14.5473 207.046 12.2788 207.046 9.6142C207.046 6.94959 207.98 4.68107 209.847 2.80864C211.714 0.936215 213.977 0 216.634 0C219.291 0 221.554 0.936215 223.421 2.80864C225.288 4.68107 226.222 6.94959 226.222 9.6142C226.222 12.2788 225.288 14.5473 223.421 16.4198C221.554 18.2922 219.291 19.2284 216.634 19.2284Z" fill="white"/>
<path d="M236.426 105C235.061 105 233.732 104.928 232.44 104.784C231.147 104.712 230.07 104.568 229.208 104.352V89.4445C230.644 89.7325 232.44 89.8765 234.594 89.8765C240.196 89.8765 243.967 87.428 245.906 82.5309V82.4228L224.037 24.5216H243.32L255.925 60.4938L270.576 24.5216H289.428L263.896 84.5833C261.814 89.5525 259.516 93.5134 257.002 96.4661C254.488 99.4907 251.58 101.651 248.276 102.948C244.972 104.316 241.022 105 236.426 105Z" fill="white"/>
<path d="M314.84 82.7469C309.023 82.7469 303.78 81.4506 299.112 78.858C294.444 76.1934 290.745 72.6286 288.016 68.1636C285.287 63.6986 283.922 58.6934 283.922 53.1482C283.922 47.6029 285.287 42.5977 288.016 38.1327C290.745 33.5957 294.444 30.0309 299.112 27.4383C303.78 24.7737 309.023 23.4414 314.84 23.4414C320.658 23.4414 325.901 24.7737 330.569 27.4383C335.237 30.0309 338.936 33.5957 341.665 38.1327C344.394 42.5977 345.759 47.6029 345.759 53.1482C345.759 58.6934 344.394 63.6986 341.665 68.1636C338.936 72.6286 335.237 76.1934 330.569 78.858C325.901 81.4506 320.658 82.7469 314.84 82.7469ZM314.84 67.6235C317.498 67.6235 319.868 66.9753 321.95 65.679C324.033 64.3827 325.685 62.6543 326.906 60.4938C328.127 58.2613 328.737 55.8128 328.737 53.1482C328.737 50.4115 328.127 47.963 326.906 45.8025C325.685 43.57 323.997 41.8056 321.843 40.5093C319.76 39.213 317.426 38.5648 314.84 38.5648C312.255 38.5648 309.885 39.213 307.73 40.5093C305.648 41.8056 303.996 43.57 302.775 45.8025C301.554 47.963 300.943 50.4115 300.943 53.1482C300.943 55.8128 301.554 58.2613 302.775 60.4938C303.996 62.6543 305.648 64.3827 307.73 65.679C309.885 66.9753 312.255 67.6235 314.84 67.6235Z" fill="white"/>
<path d="M356.884 28L357.024 20.3959L350.073 24.802L346.14 18.6193L353.794 14.1421L346 9.45178L350.002 3.41117L357.024 7.88832L356.884 0H364.116L363.976 7.88832L370.998 3.41117L375 9.45178L367.206 14.1421L374.86 18.6193L370.787 24.802L363.976 20.467L364.116 28H356.884Z" fill="white"/>
</svg>
