<?xml version="1.0" encoding="UTF-8"?>
<svg id="Layer_2" data-name="Layer 2" xmlns="http://www.w3.org/2000/svg" viewBox="0 0 928 664.04">
  <g id="Layer_1-2" data-name="Layer 1">
    <path d="M443.88,104.16v288.82h-237.92L443.88,104.16ZM443.88,0c0,66.29-53.27,119.55-119.55,119.55S205.96,66.29,205.96,0h237.92ZM482.94,391.8c0-66.29,53.27-119.55,119.55-119.55s119.55,53.27,119.55,119.55h-239.1ZM482.94,288.82V0h239.1l-239.1,288.82ZM646.29,589.47c-2.37-16.57-13.02-28.41-31.96-28.41-17.76,0-30.78,10.65-34.33,28.41h66.29ZM616.69,638c15.39,0,26.04-5.92,33.14-13.02l16.57,17.76c-10.65,10.65-26.04,18.94-49.71,18.94-40.24,0-66.29-26.04-66.29-62.73s27.22-62.73,61.55-62.73c40.24,0,61.55,30.78,60.37,72.2h-92.33c3.55,18.94,15.39,29.59,36.69,29.59ZM0,636.82l72.2-73.39H1.18v-23.67h104.16v23.67l-72.2,73.39h73.39v23.67H0v-23.67ZM216.61,589.47c-2.37-16.57-13.02-28.41-31.96-28.41-17.76,0-30.78,10.65-34.33,28.41h66.29ZM188.2,638c15.39,0,26.04-5.92,33.14-13.02l16.57,17.76c-10.65,10.65-26.04,18.94-49.71,18.94-40.24,0-66.29-26.04-66.29-62.73s27.22-62.73,61.55-62.73c40.24,0,61.55,30.78,60.37,72.2h-93.51c4.73,18.94,16.57,29.59,37.88,29.59ZM503.06,600.12c0-21.31-16.57-39.06-37.88-39.06s-37.88,16.57-37.88,39.06,16.57,39.06,37.88,39.06,37.88-17.76,37.88-39.06ZM401.27,600.12c0-39.06,28.41-62.73,60.37-62.73,15.39,0,30.78,7.1,40.24,17.76v-71.02h26.04v175.18h-26.04v-16.57c-9.47,11.84-24.86,18.94-40.24,18.94-30.78,1.18-60.37-23.67-60.37-61.55ZM690.08,635.63l23.67-11.84c7.1,10.65,16.57,17.76,30.78,17.76s22.49-7.1,22.49-15.39c0-9.47-14.2-11.84-29.59-15.39-20.12-4.73-41.43-10.65-41.43-35.51,0-18.94,17.76-36.69,46.16-36.69,22.49,0,39.06,8.29,48.53,23.67l-21.31,11.84c-5.92-8.29-15.39-14.2-27.22-14.2-14.2,0-21.31,7.1-21.31,14.2,0,8.29,10.65,10.65,28.41,15.39,20.12,3.55,42.61,10.65,42.61,35.51,0,16.57-14.2,39.06-48.53,39.06-24.86-1.18-42.61-10.65-53.27-28.41ZM861.71,607.22l-20.12,22.49v30.78h-26.04v-175.18h26.04v114.82l54.45-59.18h30.78l-47.35,50.9,48.53,68.65h-29.59s-36.69-53.27-36.69-53.27ZM324.33,537.39c-30.78,0-55.63,20.12-55.63,52.08v69.84h26.04v-66.29c0-20.12,10.65-31.96,30.78-31.96s28.41,11.84,28.41,31.96v66.29h26.04v-69.84c0-31.96-26.04-52.08-55.63-52.08Z"/>
  </g>
</svg>