<?xml version="1.0" encoding="UTF-8"?>
<svg id="Layer_2" data-name="Layer 2" xmlns="http://www.w3.org/2000/svg" viewBox="0 0 1045.49 386.67">
  <defs>
    <style>
      .cls-1 {
        fill: none;
        stroke: #000;
        stroke-miterlimit: 10;
        stroke-width: 3px;
      }
    </style>
  </defs>
  <g id="Layer_1-2" data-name="Layer 1">
    <g id="Layer_2-2" data-name="Layer 2">
      <g id="uuid-545f4e0d-ab44-470a-9252-a88f51417e76" data-name="Layer 1-2">
        <g>
          <path d="M.85,156c-1.33-1.86-1.06-3.18.53-4.77l13.77-12.23c1.85-1.59,3.44-1.32,4.76.8,12.45,20.65,34.16,27,57.19,27s45.54-6.88,45.54-31c0-21.19-14.56-28.33-50.83-32.84C32.88,97.7,7.47,83.4,7.47,49.78,7.47,20.12,33.41,0,74.72,0c23.83,0,47.92,7.68,65.93,27.8,1.32,1.85,1.32,3.71-.27,5l-13.24,11.95c-1.08,1.26-2.97,1.4-4.23.32-.2-.17-.38-.37-.53-.59-12.71-14.56-28.86-21.48-48.19-21.48-25.42,0-42.63,9-42.63,26.21s13.5,25.15,49.51,29.39c38.39,4.5,65.93,18,65.93,56.13,0,35.21-28.07,55.07-69.9,55.07-30.71.04-58.78-9.49-76.25-33.8Z"/>
          <path d="M712.72,94c0,54-37.86,92.14-94.52,92.14h-64.87c-1.76.14-3.3-1.16-3.44-2.92-.01-.17-.01-.35,0-.52V6.88c-.14-1.76,1.18-3.3,2.94-3.44.17-.01.33-.01.5,0h64.87c56.66,0,94.52,37.86,94.52,90.56ZM686.51,94c0-40.24-26.74-67.25-69.1-67.25h-42.63v136.08h42.63c42.36,0,69.1-27.27,69.1-68.83h0Z"/>
          <path d="M1045.24,182.16L979.05,6.09c-.6-1.67-2.23-2.75-4-2.65h-26.72c-1.77-.1-3.4.98-4,2.65l-64.95,172.91-51-66.42c30.19-5.3,46.87-26.74,46.87-54,0-31.77-22.51-55.07-62.22-55.07h-66.69c-1.76-.14-3.3,1.18-3.44,2.94-.01.17-.01.33,0,.5v175.74c-.14,1.76,1.18,3.3,2.94,3.44.17.01.33.01.5,0h18c1.76.14,3.3-1.16,3.44-2.92.01-.17.01-.35,0-.52v-68.84h30.45l52.7,70.15c.98,1.35,2.56,2.15,4.23,2.12h24.36c.21,0,.42-.02.62-.06.22.04.45.06.68.06h18c1.8.2,3.48-.92,4-2.65l16.68-44.74h84.46l16.69,44.74c.52,1.86,2.11,2.65,4,2.65h18c2.35.01,3.35-1.58,2.59-3.96ZM767.79,91.08V26.74h43.69c24.36,0,38.12,12.71,38.12,32s-13.76,32.3-38.12,32.3l-43.69.04ZM928,116l33.89-90.82,33.57,90.82h-67.46Z"/>
          <rect x="226.35" y="3.44" width="125.76" height="23.3" rx="2.43" ry="2.43"/>
          <rect x="187.77" y="83.27" width="125.76" height="23.3" rx="2.43" ry="2.43"/>
          <rect x="226.35" y="162.83" width="125.76" height="23.3" rx="2.43" ry="2.43"/>
          <rect x="385.47" y="3.44" width="125.76" height="23.3" rx="2.43" ry="2.43"/>
          <rect x="346.9" y="83.27" width="125.76" height="23.3" rx="2.43" ry="2.43"/>
          <rect x="385.47" y="162.83" width="125.76" height="23.3" rx="2.43" ry="2.43"/>
          <line class="cls-1" x1="2.5" y1="258.09" x2="1042.5" y2="258.09"/>
          <g>
            <path d="M78.51,287.94h9.54c1.26,0,1.82.84,1.4,2.1l-34.22,93.26c-.28.91-1.16,1.49-2.1,1.4h-14c-.94.09-1.82-.49-2.1-1.4L2.64,290c-.42-1.26.14-2.1,1.4-2.1h9.68c.94-.09,1.82.49,2.1,1.4l30.29,83,30.3-83c.3-.89,1.17-1.45,2.1-1.36Z"/>
            <path d="M215.52,300.28h-51.61v30.57h44.46c.93-.07,1.75.62,1.82,1.55,0,.09,0,.18,0,.27v8.33c.07.93-.62,1.75-1.55,1.82-.09,0-.18,0-.27,0h-44.46v29.59h51.61c.94-.07,1.75.62,1.83,1.56,0,.09,0,.17,0,.26v8.7c.07.94-.63,1.75-1.57,1.82-.09,0-.17,0-.26,0h-63c-.93.07-1.75-.62-1.82-1.55,0-.09,0-.18,0-.27v-93.17c-.07-.93.62-1.75,1.55-1.82.09,0,.18,0,.27,0h63c.94-.07,1.75.62,1.83,1.56,0,.09,0,.17,0,.26v8.69c.07.94-.62,1.76-1.56,1.83-.09,0-.18,0-.27,0Z"/>
            <path d="M352.81,287.94h9.12c.93-.07,1.75.62,1.82,1.55,0,.09,0,.18,0,.27v93.12c.07.93-.62,1.75-1.55,1.82-.09,0-.18,0-.27,0h-11.93c-.9.08-1.76-.36-2.24-1.12l-52.31-77.83v77.13c.07.94-.63,1.75-1.57,1.82-.09,0-.17,0-.26,0h-9.11c-.94.07-1.75-.62-1.83-1.56,0-.09,0-.17,0-.26v-93.12c-.07-.94.63-1.75,1.57-1.82.09,0,.17,0,.26,0h13.32c.88-.01,1.72.4,2.24,1.12l50.93,75.45v-74.75c-.07-.93.62-1.74,1.55-1.82.09,0,.17,0,.26,0Z"/>
            <path d="M497.4,289.76v8.69c.08.93-.61,1.75-1.54,1.83-.09,0-.19,0-.28,0h-28.75v82.6c.08.93-.62,1.75-1.55,1.82-.09,0-.19,0-.28,0h-9.39c-.94.07-1.75-.62-1.83-1.56,0-.09,0-.17,0-.26v-82.6h-28.78c-.93.08-1.75-.62-1.82-1.55,0-.09,0-.19,0-.28v-8.69c-.07-.93.62-1.75,1.55-1.82.09,0,.18,0,.27,0h70.55c.93-.09,1.76.59,1.85,1.52,0,.1.01.2,0,.3Z"/>
            <path d="M553.91,340.39v-50.63c-.07-.93.62-1.75,1.55-1.82.09,0,.18,0,.27,0h9.54c.93-.07,1.75.62,1.82,1.55,0,.09,0,.18,0,.27v49.5c0,23.56,11.36,34.5,27.35,34.5s27.49-10.94,27.49-34.5v-49.5c-.07-.93.62-1.75,1.55-1.82.09,0,.18,0,.27,0h9.4c.93-.07,1.75.62,1.82,1.55,0,.09,0,.18,0,.27v50.63c0,29.59-17.67,46.28-40.53,46.28s-40.53-16.67-40.53-46.28Z"/>
            <path d="M761.33,383.58l-27.91-37.16h-16.13v36.46c.07.93-.62,1.75-1.55,1.82-.09,0-.18,0-.27,0h-9.54c-.93.07-1.75-.62-1.82-1.55,0-.09,0-.18,0-.27v-93.12c-.07-.93.62-1.75,1.55-1.82.09,0,.18,0,.27,0h35.34c21,0,33,12.34,33,29.17,0,14.44-8.84,25.8-24.82,28.61l28.18,36.74c.85,1.12.43,2.24-1.12,2.24h-12.9c-.9.03-1.75-.39-2.28-1.12ZM717.33,334.35h23.14c12.9,0,20.19-7,20.19-17.1s-7.29-17-20.19-17h-23.18l.04,34.1Z"/>
            <path d="M906.47,300.28h-51.61v30.57h44.46c.93-.07,1.75.62,1.82,1.55,0,.09,0,.18,0,.27v8.33c.07.93-.62,1.75-1.55,1.82-.09,0-.18,0-.27,0h-44.46v29.59h51.61c.94-.07,1.75.62,1.83,1.56,0,.09,0,.17,0,.26v8.7c.07.94-.63,1.75-1.57,1.82-.09,0-.17,0-.26,0h-63c-.93.07-1.75-.62-1.82-1.55,0-.09,0-.18,0-.27v-93.17c-.07-.93.62-1.75,1.55-1.82.09,0,.18,0,.27,0h63c.94-.07,1.75.62,1.83,1.56,0,.09,0,.17,0,.26v8.69c.07.94-.62,1.76-1.56,1.83-.09,0-.18,0-.27,0Z"/>
            <path d="M965.09,368.71c-.63-.68-.59-1.75.1-2.37.06-.05.12-.1.18-.15l7.29-6.45c.52-.63,1.45-.72,2.08-.21.2.17.36.38.45.63,6.59,10.94,18.09,14.3,30.29,14.3s24.12-3.64,24.12-16.4c0-11.22-7.71-15-26.93-17.39-20.61-2.81-34.07-10.38-34.07-28.19,0-15.71,13.74-26.37,35.62-26.37,12.62,0,25.38,4.07,34.92,14.73.7.71.69,1.86-.03,2.56-.04.04-.07.07-.11.1l-7,6.31c-.56.67-1.56.75-2.23.19-.11-.1-.21-.21-.29-.33-6.73-7.71-15.29-11.36-25.52-11.36-13.47,0-22.58,4.77-22.58,13.89s7.15,13.32,26.22,15.56c20.34,2.39,34.92,9.54,34.92,29.73,0,18.66-14.86,29.18-37,29.18-16.31,0-31.17-5.05-40.43-17.96Z"/>
          </g>
        </g>
      </g>
    </g>
  </g>
</svg>